<svg xmlns="http://www.w3.org/2000/svg" width="1100" height="360" font-family="Arial, sans-serif">
  <defs>
    <marker id="arrow" markerWidth="10" markerHeight="10" refX="5" refY="3" orient="auto" markerUnits="strokeWidth">
      <path d="M0,0 L0,6 L9,3 z" fill="#000"/>
    </marker>
  </defs>

  <!-- Image branch -->
  <rect x="20" y="20" width="150" height="60" rx="10" ry="10" fill="#e0f0ff" stroke="#000"/>
  <text x="95" y="55" text-anchor="middle" font-size="14">Input Images</text>
  
  <rect x="200" y="20" width="150" height="60" rx="10" ry="10" fill="#e0f0ff" stroke="#000"/>
  <text x="275" y="45" text-anchor="middle" font-size="14">YOLO</text>
  <text x="275" y="65" text-anchor="middle" font-size="14">Detection</text>
  
  <rect x="380" y="20" width="150" height="60" rx="10" ry="10" fill="#e0f0ff" stroke="#000"/>
  <text x="455" y="45" text-anchor="middle" font-size="14">EfficientNet</text>
  <text x="455" y="65" text-anchor="middle" font-size="14">Features</text>
  
  <rect x="560" y="20" width="150" height="60" rx="10" ry="10" fill="#e0f0ff" stroke="#000"/>
  <text x="635" y="45" text-anchor="middle" font-size="14">Image</text>
  <text x="635" y="65" text-anchor="middle" font-size="14">LSTM</text>
  
  <!-- Sensor branch -->
  <rect x="20" y="150" width="150" height="60" rx="10" ry="10" fill="#e0f0ff" stroke="#000"/>
  <text x="95" y="185" text-anchor="middle" font-size="14">Sensor Data</text>
  
  <rect x="200" y="150" width="150" height="60" rx="10" ry="10" fill="#e0f0ff" stroke="#000"/>
  <text x="275" y="175" text-anchor="middle" font-size="14">Sensor</text>
  <text x="275" y="195" text-anchor="middle" font-size="14">Embedding</text>
  
  <rect x="380" y="150" width="150" height="60" rx="10" ry="10" fill="#e0f0ff" stroke="#000"/>
  <text x="455" y="175" text-anchor="middle" font-size="14">Sensor</text>
  <text x="455" y="195" text-anchor="middle" font-size="14">LSTM</text>
  
  <!-- Action branch -->
  <rect x="20" y="280" width="150" height="60" rx="10" ry="10" fill="#e0f0ff" stroke="#000"/>
  <text x="95" y="315" text-anchor="middle" font-size="14">Prev Actions</text>
  
  <rect x="200" y="280" width="150" height="60" rx="10" ry="10" fill="#e0f0ff" stroke="#000"/>
  <text x="275" y="305" text-anchor="middle" font-size="14">Action</text>
  <text x="275" y="325" text-anchor="middle" font-size="14">Embedding</text>
  
  <rect x="380" y="280" width="150" height="60" rx="10" ry="10" fill="#e0f0ff" stroke="#000"/>
  <text x="455" y="305" text-anchor="middle" font-size="14">Action</text>
  <text x="455" y="325" text-anchor="middle" font-size="14">LSTM</text>
  
  <!-- Fusion and output -->
  <rect x="740" y="120" width="150" height="100" rx="10" ry="10" fill="#e0f0ff" stroke="#000"/>
  <text x="815" y="155" text-anchor="middle" font-size="14">Fusion</text>
  <text x="815" y="175" text-anchor="middle" font-size="14">+ FC Layers</text>
  
  <rect x="920" y="120" width="150" height="100" rx="10" ry="10" fill="#e0f0ff" stroke="#000"/>
  <text x="995" y="165" text-anchor="middle" font-size="14">Action</text>
  <text x="995" y="185" text-anchor="middle" font-size="14">Prediction</text>
  
  <!-- Lines for image branch -->
  <line x1="170" y1="50" x2="200" y2="50" stroke="#000" stroke-width="2" marker-end="url(#arrow)"/>
  <line x1="350" y1="50" x2="380" y2="50" stroke="#000" stroke-width="2" marker-end="url(#arrow)"/>
  <line x1="530" y1="50" x2="560" y2="50" stroke="#000" stroke-width="2" marker-end="url(#arrow)"/>
  
  <!-- Lines for sensor branch -->
  <line x1="170" y1="180" x2="200" y2="180" stroke="#000" stroke-width="2" marker-end="url(#arrow)"/>
  <line x1="350" y1="180" x2="380" y2="180" stroke="#000" stroke-width="2" marker-end="url(#arrow)"/>
  
  <!-- Lines for action branch -->
  <line x1="170" y1="310" x2="200" y2="310" stroke="#000" stroke-width="2" marker-end="url(#arrow)"/>
  <line x1="350" y1="310" x2="380" y2="310" stroke="#000" stroke-width="2" marker-end="url(#arrow)"/>
  
  <!-- Lines to fusion -->
  <line x1="710" y1="50" x2="740" y2="170" stroke="#000" stroke-width="2" marker-end="url(#arrow)"/>
  <line x1="530" y1="180" x2="740" y2="170" stroke="#000" stroke-width="2" marker-end="url(#arrow)"/>
  <line x1="530" y1="310" x2="740" y2="170" stroke="#000" stroke-width="2" marker-end="url(#arrow)"/>
  
  <!-- Line to prediction -->
  <line x1="890" y1="170" x2="920" y2="170" stroke="#000" stroke-width="2" marker-end="url(#arrow)"/>
=======
<svg xmlns="http://www.w3.org/2000/svg" width="800" height="200" font-family="Arial, sans-serif">
  <defs>
    <marker id="arrow" markerWidth="10" markerHeight="10" refX="5" refY="3" orient="auto" markerUnits="strokeWidth">
      <path d="M0,0 L0,6 L9,3 z" fill="#000" />
    </marker>
  </defs>
  <rect x="20" y="50" width="150" height="100" rx="10" ry="10" fill="#e0f0ff" stroke="#000"/>
  <text x="95" y="95" text-anchor="middle" font-size="14">Input Images</text>
  <text x="95" y="115" text-anchor="middle" font-size="14">+ Sensor Data</text>

  <rect x="220" y="50" width="150" height="100" rx="10" ry="10" fill="#e0f0ff" stroke="#000"/>
  <text x="295" y="95" text-anchor="middle" font-size="14">YOLO</text>
  <text x="295" y="115" text-anchor="middle" font-size="14">Person Detection</text>

  <rect x="420" y="50" width="150" height="100" rx="10" ry="10" fill="#e0f0ff" stroke="#000"/>
  <text x="495" y="95" text-anchor="middle" font-size="14">EfficientNet</text>
  <text x="495" y="115" text-anchor="middle" font-size="14">Activity Classifier</text>

  <rect x="620" y="50" width="150" height="100" rx="10" ry="10" fill="#e0f0ff" stroke="#000"/>
  <text x="695" y="90" text-anchor="middle" font-size="14">Temporal +</text>
  <text x="695" y="110" text-anchor="middle" font-size="14">Sensor Fusion</text>
  <text x="695" y="130" text-anchor="middle" font-size="14">Activity Recognition</text>

  <line x1="170" y1="100" x2="220" y2="100" stroke="#000" stroke-width="2" marker-end="url(#arrow)"/>
  <line x1="370" y1="100" x2="420" y2="100" stroke="#000" stroke-width="2" marker-end="url(#arrow)"/>
  <line x1="570" y1="100" x2="620" y2="100" stroke="#000" stroke-width="2" marker-end="url(#arrow)"/>
</svg>
